<svg width="25" height="25" viewBox="0 0 25 25" fill="none" xmlns="http://www.w3.org/2000/svg">
<path fill-rule="evenodd" clip-rule="evenodd" d="M12.5055 3.05338C12.1342 3.14371 11.8814 3.29204 11.2977 3.76207C10.9882 4.0113 10.7149 4.2312 10.6904 4.25079C10.6628 4.27271 10.4086 4.2493 10.0274 4.18969C9.12142 4.04804 9.007 4.03909 8.712 4.08685C8.03347 4.19673 7.47487 4.603 7.173 5.20621C7.12882 5.29447 6.98736 5.64387 6.85862 5.98268C6.72988 6.32149 6.6167 6.60656 6.60715 6.61614C6.59759 6.62571 6.30271 6.74391 5.95186 6.87881C5.60101 7.01366 5.24256 7.16086 5.15528 7.20585C4.59367 7.49549 4.18967 8.06805 4.0848 8.723C4.0364 9.02523 4.04977 9.19827 4.18811 10.0596C4.24088 10.388 4.2759 10.6694 4.26603 10.685C4.25612 10.7007 4.03616 10.9773 3.7772 11.2998C3.51824 11.6223 3.26165 11.9803 3.20701 12.0953C2.9307 12.6773 2.93101 13.3217 3.20787 13.9077C3.26294 14.0244 3.51149 14.3736 3.76012 14.6837C4.00878 14.9939 4.2282 15.2678 4.24774 15.2924C4.26962 15.3201 4.24626 15.5748 4.18678 15.9569C4.04544 16.8649 4.03651 16.9796 4.08417 17.2752C4.19349 17.9534 4.59995 18.516 5.19697 18.8155C5.28277 18.8585 5.63284 19.0017 5.97491 19.1338C6.31698 19.2658 6.60325 19.3802 6.61101 19.388C6.61881 19.3958 6.7353 19.6899 6.86989 20.0415C7.00444 20.3932 7.15132 20.7524 7.19621 20.8399C7.4852 21.4028 8.05648 21.8077 8.70997 21.9128C9.01152 21.9613 9.18418 21.9479 10.0436 21.8092C10.3712 21.7563 10.652 21.7212 10.6676 21.7311C10.6832 21.7411 10.9593 21.9615 11.281 22.2211C11.6028 22.4806 11.96 22.7378 12.0748 22.7925C12.6554 23.0695 13.2984 23.0691 13.8831 22.7917C13.9995 22.7365 14.3479 22.4874 14.6574 22.2382C14.9669 21.989 15.2402 21.7691 15.2647 21.7495C15.2923 21.7275 15.5465 21.751 15.9277 21.8106C16.8337 21.9522 16.9481 21.9612 17.2431 21.9134C17.9198 21.8038 18.4811 21.3965 18.7799 20.7981C18.8229 20.7121 18.9657 20.3613 19.0975 20.0184C19.2292 19.6756 19.3433 19.3887 19.3512 19.3809C19.3589 19.3731 19.6524 19.2563 20.0032 19.1215C20.3541 18.9866 20.7125 18.8394 20.7998 18.7944C21.3614 18.5048 21.7654 17.9322 21.8703 17.2773C21.9187 16.975 21.9053 16.802 21.767 15.9406C21.7142 15.6123 21.6792 15.3308 21.6891 15.3152C21.699 15.2996 21.9189 15.0229 22.1779 14.7004C22.6586 14.1019 22.8109 13.8475 22.8856 13.5183C22.9088 13.416 22.9442 13.3018 22.9642 13.2645C23.0087 13.1816 23.0132 12.675 22.9692 12.7023C22.9519 12.713 22.9187 12.6305 22.8953 12.5189C22.8233 12.1748 22.6646 11.9024 22.195 11.3165C21.9463 11.0063 21.7269 10.7325 21.7074 10.7078C21.6855 10.6802 21.7088 10.4255 21.7683 10.0433C21.9097 9.13537 21.9186 9.02069 21.8709 8.72503C21.7613 8.04499 21.3559 7.48513 20.7541 7.18259C20.666 7.13831 20.3174 6.99654 19.9793 6.86751C19.6413 6.73848 19.3568 6.62505 19.3473 6.61547C19.3377 6.6059 19.2198 6.31035 19.0852 5.95872C18.9507 5.60709 18.8038 5.24783 18.7589 5.16036C18.4699 4.59749 17.8986 4.19258 17.2451 4.08748C16.9436 4.03897 16.7709 4.05238 15.9115 4.19102C15.5839 4.24391 15.3031 4.27901 15.2875 4.26912C15.2719 4.25919 14.9958 4.03874 14.6741 3.77919C14.3523 3.51965 13.9951 3.26249 13.8803 3.20773C13.4498 3.00237 12.9471 2.94592 12.5055 3.05338ZM7.08927 10.6061C7.01462 10.6436 6.91369 10.7342 6.86502 10.8072L6.77649 10.9401V13.0001V15.0602L6.86502 15.193C7.02137 15.4276 7.14644 15.4625 7.83106 15.4626C8.53037 15.4626 8.78048 15.4132 9.09252 15.2131C9.5064 14.9478 9.74223 14.5435 9.77141 14.0495C9.79274 13.6885 9.73389 13.4184 9.58136 13.1774L9.46786 12.9979L9.56236 12.8525C9.80296 12.4822 9.84991 11.8664 9.66864 11.4593C9.48253 11.0412 9.09541 10.7094 8.66165 10.5962C8.32254 10.5077 7.27156 10.5143 7.08927 10.6061ZM10.5233 10.6061C10.4497 10.6436 10.3532 10.7241 10.3088 10.7848C10.2299 10.8926 10.2278 10.9413 10.2178 12.9541C10.2083 14.8559 10.2128 15.0234 10.2763 15.1472C10.3141 15.2209 10.3945 15.3176 10.455 15.3622C10.558 15.4379 10.6257 15.4438 11.5156 15.4548C12.4046 15.4657 12.4761 15.4614 12.6202 15.3877C12.9139 15.2375 13.02 14.8222 12.8299 14.567C12.6541 14.3309 12.5889 14.3106 11.9608 14.2962L11.3785 14.2829V13.9381V13.5934L11.8048 13.5801C12.2654 13.5658 12.3523 13.5319 12.5266 13.2978C12.6365 13.1503 12.6365 12.8499 12.5266 12.7025C12.3523 12.4684 12.2654 12.4344 11.8048 12.4201L11.3785 12.4069V12.0621V11.7174L11.9608 11.7041C12.4757 11.6922 12.5554 11.6814 12.6506 11.6101C12.9255 11.4042 12.9972 11.1527 12.8611 10.8711C12.7098 10.5577 12.6315 10.5376 11.5653 10.5377C10.7777 10.5377 10.6393 10.5468 10.5233 10.6061ZM14.1485 10.6003C13.7375 10.711 13.3868 10.9956 13.1961 11.3733C12.7376 12.2816 13.309 13.3962 14.3116 13.5496C14.4466 13.5703 14.5961 13.596 14.6437 13.6068C14.8906 13.6628 14.973 13.9993 14.7858 14.187C14.6891 14.2838 14.6605 14.2901 14.308 14.291C13.8104 14.2922 13.6492 14.3333 13.4986 14.4977C13.2465 14.7728 13.3125 15.195 13.6361 15.3773C13.7684 15.4518 13.8464 15.4626 14.2504 15.4622C14.9315 15.4615 15.2586 15.3535 15.6068 15.0144C16.1985 14.438 16.198 13.4544 15.6057 12.8692C15.3628 12.6292 15.0879 12.4989 14.6897 12.435C14.4224 12.3921 14.3493 12.3645 14.2758 12.2789C14.1603 12.1443 14.1621 11.9776 14.2806 11.8395C14.372 11.7329 14.3884 11.7292 14.8558 11.7088C15.4084 11.6847 15.5297 11.6368 15.6696 11.3874C15.828 11.105 15.7211 10.754 15.4318 10.6061C15.259 10.5177 14.4681 10.5142 14.1485 10.6003ZM16.4884 10.6061C16.0863 10.8086 16.067 11.4148 16.4563 11.6165C16.5268 11.653 16.7031 11.6914 16.848 11.7018L17.1116 11.7207V13.3905V15.0602L17.2001 15.193C17.4328 15.5421 17.9214 15.5421 18.1541 15.193L18.2426 15.0602V13.3905V11.7207L18.5062 11.7018C18.6511 11.6914 18.8274 11.653 18.8979 11.6165C19.2872 11.4148 19.2679 10.8086 18.8658 10.6061C18.7466 10.546 18.6019 10.5377 17.6771 10.5377C16.7523 10.5377 16.6075 10.546 16.4884 10.6061ZM7.9075 12.062V12.4138H8.14287C8.41626 12.4138 8.54543 12.3467 8.60572 12.1734C8.65537 12.0307 8.58139 11.8179 8.45935 11.7524C8.41606 11.7292 8.27418 11.7102 8.14407 11.7102H7.9075V12.062ZM3.00655 13.0001C3.00655 13.1614 3.01346 13.2273 3.02184 13.1467C3.03026 13.0661 3.03026 12.9342 3.02184 12.8535C3.01346 12.773 3.00655 12.8389 3.00655 13.0001ZM7.9075 13.9382V14.29H8.14407C8.27418 14.29 8.41606 14.271 8.45935 14.2478C8.58139 14.1823 8.65537 13.9696 8.60572 13.8269C8.54543 13.6535 8.41626 13.5864 8.14287 13.5864H7.9075V13.9382Z" fill="black"/>
</svg>
