<svg width="25" height="25" viewBox="0 0 25 25" fill="none" xmlns="http://www.w3.org/2000/svg">
<path fill-rule="evenodd" clip-rule="evenodd" d="M12.8959 3.28714C12.7094 3.38573 12.7362 3.35875 10.8957 5.3017C9.95004 6.30001 9.14108 7.14783 9.09803 7.18574C8.83313 7.41894 8.48098 7.52137 6.7036 7.88225C3.47914 8.53697 3.23659 8.60446 3.0455 8.89991C2.9514 9.04544 2.15605 11.8228 2.08978 12.2374C2.00764 12.7515 2.43047 13.1301 3.00649 13.0581C3.27618 13.0243 3.69348 12.8207 3.79603 12.6728C3.83818 12.6119 4.04423 12.1099 4.25383 11.5572C4.7421 10.2698 4.77204 10.2019 4.86214 10.1762C5.00432 10.1357 6.1609 9.93588 6.17372 9.94957C6.18077 9.95708 6.05731 10.5665 5.8993 11.3039C5.74132 12.0413 5.5765 12.8117 5.533 13.0159C5.437 13.4667 5.43494 13.5693 5.51589 13.8801L5.5789 14.1222L5.15293 14.8891C4.91863 15.3109 4.10757 16.7678 3.35061 18.1266C2.13613 20.3065 1.97222 20.622 1.95668 20.8092C1.93655 21.0522 2.00088 21.2386 2.17696 21.4476C2.43307 21.7514 2.95111 21.8373 3.29873 21.6335C3.51402 21.5073 3.59435 21.3879 5.40476 18.5027C6.07393 17.4362 6.74108 16.3733 6.88726 16.1407L7.15307 15.7178L7.30292 15.8484C8.03868 16.4897 8.51619 16.9558 8.58489 17.0999C8.62819 17.1907 8.79507 17.8961 8.95572 18.6675C9.49294 21.2465 9.48473 21.2123 9.60725 21.3865C9.83091 21.7045 10.3414 21.8361 10.6803 21.6631C10.9401 21.5305 11.0856 21.3091 11.1438 20.958C11.1867 20.6986 10.6637 16.4102 10.5458 16.0553C10.4584 15.7922 10.1936 15.4515 9.45022 14.6454C9.08405 14.2483 8.75482 13.8626 8.71866 13.7882C8.66147 13.6707 8.65953 13.6139 8.7039 13.3551C8.77012 12.9687 9.26895 10.596 9.37241 10.1753C9.53471 9.51523 9.51665 9.53981 11.7516 6.93728C12.8943 5.60664 13.8651 4.44902 13.9089 4.36486C14.1042 3.98971 13.9426 3.48837 13.5679 3.3069C13.3523 3.20249 13.0717 3.19424 12.8959 3.28714ZM7.11274 4.18389C6.69745 4.31928 6.30691 4.66716 6.11818 5.06986C6.0235 5.27192 6.00952 5.35471 6.00952 5.71423C6.00952 6.08154 6.02251 6.15489 6.12803 6.38342C6.27326 6.69793 6.59502 7.01504 6.92689 7.1706C7.13496 7.26817 7.2148 7.28182 7.57647 7.28182C7.93757 7.28182 8.01815 7.26808 8.22462 7.17126C8.53735 7.02461 8.85404 6.72157 9.0137 6.41618C9.13518 6.18376 9.14343 6.14053 9.14343 5.73485C9.14343 5.35125 9.13077 5.27472 9.03292 5.06582C8.87948 4.73828 8.58885 4.4413 8.26643 4.28248C8.03947 4.17073 7.94578 4.14911 7.64356 4.13888C7.42052 4.13129 7.22251 4.14808 7.11274 4.18389ZM17.5495 4.78518C17.1028 4.88019 16.6969 5.21161 16.4875 5.65235C16.3742 5.89075 16.3601 5.9617 16.3605 6.29176C16.3609 6.60611 16.3777 6.69892 16.47 6.89714C16.616 7.21058 16.8801 7.48825 17.1828 7.64662C17.4169 7.76905 17.4576 7.77677 17.8648 7.77549C18.2215 7.77437 18.3325 7.75816 18.4953 7.68341C18.7738 7.55553 19.1209 7.21281 19.2524 6.93579C19.384 6.65854 19.4257 6.21879 19.3503 5.90424C19.2427 5.4557 18.8319 4.99837 18.4008 4.84743C18.169 4.76625 17.7742 4.73737 17.5495 4.78518ZM13.0608 7.30496C12.715 7.40649 12.4079 7.86926 12.4079 8.28875C12.4079 8.51345 12.4408 8.58717 13.1261 9.90185C13.9059 11.3976 14.0392 11.5889 14.3624 11.6759C14.4937 11.7113 14.5846 11.7113 14.7269 11.6757C14.94 11.6226 14.9946 11.5935 15.8791 11.064L16.512 10.6851L16.4833 11.3555C16.4675 11.7242 16.4416 12.2599 16.4256 12.546L16.3966 13.0662L16.0482 13.5118C15.6107 14.0714 14.6702 15.2021 14.358 15.5435C14.228 15.6859 14.0563 15.9272 13.9766 16.0798C13.6392 16.7257 13.6146 17.1529 13.8665 17.9902C13.9581 18.2946 14.1622 19.0432 14.3199 19.6536C14.6035 20.7508 14.6984 21.0014 14.9027 21.1922C15.2256 21.4938 15.8448 21.4982 16.2538 21.2018C16.4732 21.0428 16.63 20.718 16.658 20.3646C16.6894 19.968 16.4539 18.41 16.199 17.3286C16.1645 17.1821 16.1413 17.0571 16.1475 17.0509C16.1538 17.0446 16.2876 17.0764 16.4449 17.1216C16.6021 17.1667 16.8471 17.2241 16.9893 17.249C17.3829 17.318 17.392 17.3317 17.5617 18.1106C17.6432 18.485 17.8345 19.3516 17.9867 20.0366C18.2988 21.4411 18.3275 21.507 18.7053 21.683C19.2819 21.9516 19.9547 21.6226 20.0948 21.0036C20.1164 20.9084 20.0439 20.2633 19.8654 18.9616C19.7219 17.915 19.6074 17.0566 19.6109 17.054C19.6173 17.0494 21.0576 16.4834 21.2382 16.4145L21.3335 16.3781L21.2061 16.1391C21.0823 15.9066 20.9722 15.7531 20.3426 14.9341C19.6367 14.0161 19.3619 13.0761 19.5274 12.1453C19.5633 11.9435 19.6319 11.4442 19.6798 11.0358C19.7278 10.6274 19.7797 10.2633 19.7952 10.2268C19.8208 10.1667 19.8621 10.1693 20.229 10.2543C20.452 10.306 20.641 10.3548 20.649 10.3628C20.6569 10.3707 20.6093 10.7482 20.5431 11.2015C20.477 11.6549 20.4226 12.1395 20.4222 12.2785C20.4202 12.9157 20.796 13.3476 21.3492 13.344C21.6555 13.3421 21.9122 13.2322 22.1737 12.991C22.4914 12.6981 22.5404 12.574 22.8158 11.3651C23.0936 10.1456 23.1049 9.98348 22.9351 9.65062C22.7223 9.23331 22.0834 8.72207 21.5554 8.54654C21.4193 8.50133 20.7327 8.3482 20.0296 8.20625C18.7681 7.95155 18.7421 7.94813 18.0503 7.9457C17.4546 7.94359 17.2943 7.95716 16.9833 8.03583C16.5115 8.15518 16.0197 8.3873 15.5435 8.71538C15.3347 8.85927 15.1132 9.00877 15.0513 9.04763L14.9388 9.1183L14.8399 8.92198C14.7856 8.81402 14.6914 8.58734 14.6308 8.41833C14.4742 7.98216 14.2439 7.56118 14.1092 7.46527C13.8493 7.28009 13.3865 7.20934 13.0608 7.30496Z" fill="black"/>
</svg>
