<svg width="25" height="25" viewBox="0 0 25 25" fill="none" xmlns="http://www.w3.org/2000/svg">
<path fill-rule="evenodd" clip-rule="evenodd" d="M9.28565 3.11814C9.41497 3.60768 9.45221 3.88366 9.47342 4.51046C9.50198 5.35396 9.43481 5.84371 9.18854 6.58724C8.89503 7.47348 8.50748 8.17826 7.41675 9.80931C6.20743 11.6178 5.86103 12.2038 5.50951 13.036C5.11537 13.969 4.96715 14.7455 5.00598 15.6735C5.0478 16.6728 5.2793 17.5333 5.75146 18.4445C6.82777 20.5214 8.92003 21.9371 11.3104 22.2059C11.6025 22.2387 12.0191 22.2486 12.4225 22.2322C13.483 22.1892 14.3307 21.9774 15.2918 21.5155C17.4339 20.4859 18.9079 18.4538 19.1868 16.1461C19.2533 15.5956 19.2185 14.2546 19.1177 13.4862C18.7464 10.6542 17.6579 8.23256 15.8425 6.19965C14.6589 4.8743 12.8595 3.75933 11.1272 3.27779C10.5864 3.12747 9.82365 3 9.46484 3C9.25741 3 9.25487 3.00168 9.28565 3.11814ZM11.4267 12.8689C11.4117 12.8835 11.3994 12.9557 11.3994 13.0295C11.3994 13.3471 11.2845 13.6473 10.6756 14.9217C10.1435 16.035 9.99848 16.5859 10.0024 17.4778C10.0069 18.4731 10.2185 19.1214 10.699 19.612C11.4343 20.3628 12.788 20.3628 13.5232 19.612C14.001 19.1242 14.2165 18.469 14.2182 17.4993C14.2191 17.0233 14.1992 16.8197 14.1228 16.5232C13.8508 15.4676 13.2575 14.4319 12.4705 13.6387C12.0811 13.2463 11.4885 12.8092 11.4267 12.8689Z" fill="black"/>
</svg>
