<svg width="25" height="25" viewBox="0 0 25 25" fill="none" xmlns="http://www.w3.org/2000/svg">
<path fill-rule="evenodd" clip-rule="evenodd" d="M9.04772 3.85363C8.85228 3.97461 8.73506 4.23989 8.77745 4.46545C8.81164 4.64731 8.87384 4.71207 10.6215 6.38387L10.9798 6.72663L7.88286 6.72868C4.88128 6.73067 4.7788 6.73394 4.55556 6.83463C4.27525 6.96104 3.97093 7.24558 3.82176 7.52072L3.71094 7.72517V12.4276V17.1299L3.82176 17.3344C3.95322 17.5768 4.25477 17.8735 4.50437 18.006C4.66664 18.0921 4.85799 18.1035 6.53259 18.1266L8.38165 18.1522L7.92218 19.3278C7.36309 20.7584 7.34476 20.9521 7.74537 21.196C8.00336 21.353 8.35416 21.2992 8.54157 21.0738C8.57602 21.0324 8.85356 20.3581 9.15845 19.5753L9.71272 18.1522H12.4952H15.2778L15.8178 19.5322C16.1149 20.2913 16.3867 20.9638 16.4218 21.0268C16.5531 21.262 16.9361 21.3624 17.1978 21.2303C17.3575 21.1496 17.5576 20.8568 17.5576 20.704C17.5576 20.6399 17.3417 20.0395 17.0778 19.3698L16.598 18.1522L18.4471 18.1266C20.1218 18.1035 20.3132 18.0921 20.4754 18.006C20.725 17.8735 21.0266 17.5768 21.158 17.3344L21.2689 17.1299L21.2827 12.5334C21.2983 7.36355 21.3168 7.63322 20.9163 7.19753C20.8005 7.07159 20.5906 6.91478 20.4498 6.849L20.1939 6.72949L17.1311 6.72898C15.4465 6.72868 14.0759 6.70874 14.0853 6.68467C14.0947 6.66054 14.548 6.2178 15.0928 5.70075C15.6375 5.18369 16.1154 4.69853 16.1549 4.62262C16.2476 4.44439 16.246 4.25609 16.1502 4.07117C16.0367 3.85199 15.8779 3.76393 15.5961 3.76393C15.3115 3.76393 15.5169 3.59275 13.578 5.44615L12.4905 6.48569L11.2745 5.31576C9.61618 3.72043 9.66829 3.76362 9.40559 3.76531C9.28601 3.76602 9.12497 3.80579 9.04772 3.85363Z" fill="black"/>
</svg>
